<svg width="213" height="50" viewBox="0 0 213 50" fill="none" xmlns="http://www.w3.org/2000/svg">
<g filter="url(#filter0_d_801_21)">
<rect x="4" width="205" height="42" rx="21" fill="#FF6A12"/>
</g>
<path d="M80.1617 20.328L74.9417 31H71.1137L74.9997 10.816H78.8857L76.7977 21.575H76.8557L82.0467 10.816H85.9617L82.0467 31H78.1317L80.2197 20.328H80.1617ZM92.0546 14.586L88.8646 31H84.9206L88.8356 10.816H98.0866L97.3616 14.586H92.0546ZM104.444 10.816C105.178 10.816 105.845 10.8933 106.445 11.048C107.044 11.2027 107.556 11.4637 107.982 11.831C108.407 12.179 108.736 12.6623 108.968 13.281C109.2 13.8803 109.316 14.6247 109.316 15.514C109.316 18.1433 108.687 20.154 107.431 21.546C106.174 22.9187 104.473 23.605 102.327 23.605H101.399L99.9777 31H96.0337L99.9487 10.816H104.444ZM103.168 14.586L102.153 19.806H102.82C103.071 19.806 103.351 19.7673 103.661 19.69C103.97 19.5933 104.26 19.429 104.531 19.197C104.801 18.9457 105.024 18.5977 105.198 18.153C105.372 17.7083 105.459 17.1283 105.459 16.413C105.459 15.7363 105.304 15.2627 104.995 14.992C104.705 14.7213 104.299 14.586 103.777 14.586H103.168ZM114.285 27.056H111.327L109.964 31H105.759L113.502 10.816H118.316L118.258 31H114.14L114.285 27.056ZM113.618 20.125L112.603 23.344H114.43L114.662 20.125L115.039 16.036H114.865L113.618 20.125ZM127.134 14.586L123.944 31H120L123.19 14.586H120.087L120.812 10.816H130.962L130.237 14.586H127.134ZM128.41 31L132.325 10.816H136.269L134.819 18.211H135.283C136.114 18.211 136.839 18.327 137.458 18.559C138.096 18.7717 138.628 19.081 139.053 19.487C139.478 19.8737 139.797 20.3377 140.01 20.879C140.242 21.401 140.358 21.9713 140.358 22.59C140.358 23.866 140.194 25.026 139.865 26.07C139.536 27.114 139.072 28.0033 138.473 28.738C137.874 29.4533 137.158 30.014 136.327 30.42C135.496 30.8067 134.577 31 133.572 31H128.41ZM133.804 27.23C134.113 27.23 134.423 27.1527 134.732 26.998C135.061 26.824 135.341 26.592 135.573 26.302C135.824 25.9927 136.027 25.6157 136.182 25.171C136.337 24.707 136.414 24.185 136.414 23.605C136.414 22.909 136.24 22.474 135.892 22.3C135.563 22.1067 135.186 22.01 134.761 22.01H134.094L133.079 27.23H133.804Z" fill="white"/>
<defs>
<filter id="filter0_d_801_21" x="0" y="0" width="213" height="50" filterUnits="userSpaceOnUse" color-interpolation-filters="sRGB">
<feFlood flood-opacity="0" result="BackgroundImageFix"/>
<feColorMatrix in="SourceAlpha" type="matrix" values="0 0 0 0 0 0 0 0 0 0 0 0 0 0 0 0 0 0 127 0" result="hardAlpha"/>
<feOffset dy="4"/>
<feGaussianBlur stdDeviation="2"/>
<feComposite in2="hardAlpha" operator="out"/>
<feColorMatrix type="matrix" values="0 0 0 0 0 0 0 0 0 0 0 0 0 0 0 0 0 0 0.25 0"/>
<feBlend mode="normal" in2="BackgroundImageFix" result="effect1_dropShadow_801_21"/>
<feBlend mode="normal" in="SourceGraphic" in2="effect1_dropShadow_801_21" result="shape"/>
</filter>
</defs>
</svg>
