<svg width="233" height="100" viewBox="0 0 233 100" fill="none" xmlns="http://www.w3.org/2000/svg">
<path d="M0.628391 23L4.88089 1.076H14.3939L13.6064 5.171H8.37739L7.58989 9.1085H8.62939C10.3514 9.1085 11.6114 9.4865 12.4094 10.2425C13.2074 10.9985 13.6064 12.122 13.6064 13.613C13.6064 14.894 13.4279 16.112 13.0709 17.267C12.7349 18.401 12.2519 19.3985 11.6219 20.2595C10.9919 21.0995 10.2254 21.7715 9.32239 22.2755C8.44039 22.7585 7.44289 23 6.32989 23H0.628391ZM6.58189 18.905C7.27489 18.905 7.90489 18.5795 8.47189 17.9285C9.03889 17.2775 9.32239 16.2695 9.32239 14.9045C9.32239 14.5265 9.26989 14.2325 9.16489 14.0225C9.05989 13.7915 8.92339 13.6235 8.75539 13.5185C8.58739 13.3925 8.38789 13.319 8.15689 13.298C7.94689 13.256 7.72639 13.235 7.49539 13.235H6.80239L5.69989 18.905H6.58189ZM14.102 23L18.3545 1.076H28.403L27.6155 5.171H21.851L20.9375 9.77H25.9775L25.1585 13.9595H20.1185L19.205 18.905H24.9695L24.1505 23H14.102ZM35.9175 0.886999C37.6185 0.886999 38.8785 1.307 39.6975 2.147C40.5165 2.987 40.926 4.037 40.926 5.297C40.926 5.759 40.884 6.1685 40.8 6.5255L36.5475 7.25C36.5685 7.145 36.579 7.0505 36.579 6.9665C36.6 6.8615 36.6105 6.7565 36.6105 6.6515C36.6105 6.1685 36.5055 5.7695 36.2955 5.4545C36.0855 5.1395 35.7915 4.982 35.4135 4.982C35.1195 4.982 34.878 5.045 34.689 5.171C34.5 5.276 34.332 5.4125 34.185 5.5805C34.059 5.7485 33.954 5.9375 33.87 6.1475C33.807 6.3365 33.765 6.5045 33.744 6.6515L31.5705 17.834C31.5495 17.918 31.539 18.044 31.539 18.212C31.539 18.443 31.602 18.653 31.728 18.842C31.875 19.01 32.169 19.094 32.61 19.094C33.513 19.094 34.143 18.338 34.5 16.826L38.6265 17.393C38.5005 18.254 38.28 19.0415 37.965 19.7555C37.671 20.4485 37.272 21.0575 36.768 21.5825C36.264 22.0865 35.6445 22.4855 34.9095 22.7795C34.1955 23.0525 33.345 23.189 32.358 23.189C30.678 23.189 29.4075 22.8215 28.5465 22.0865C27.6855 21.3515 27.255 20.291 27.255 18.905C27.255 18.485 27.3075 17.981 27.4125 17.393L29.4915 6.6515C29.6595 5.7905 29.901 5.003 30.216 4.289C30.531 3.575 30.9405 2.966 31.4445 2.462C31.9485 1.958 32.568 1.5695 33.303 1.2965C34.038 1.0235 34.9095 0.886999 35.9175 0.886999ZM46.4939 23L49.9274 5.2655H47.6594L44.2259 23H39.9419L44.1944 1.076H54.9989L50.7464 23H46.4939ZM69.5925 1.076L65.34 23H61.182L64.647 5.171H62.442L60.804 13.4555C60.51 14.9675 60.174 16.301 59.796 17.456C59.418 18.59 58.956 19.5665 58.41 20.3855C57.885 21.2045 57.255 21.887 56.52 22.433C55.785 22.979 54.9135 23.4095 53.9055 23.7245L52.5825 20.543C53.3385 20.165 53.958 19.745 54.441 19.283C54.945 18.821 55.365 18.3065 55.701 17.7395C56.037 17.1725 56.31 16.532 56.52 15.818C56.751 15.104 56.9505 14.306 57.1185 13.424L59.5125 1.076H69.5925ZM76.4575 18.716H73.2445L71.764 23H67.1965L75.607 1.076H80.836L80.773 23H76.3L76.4575 18.716ZM75.733 11.1875L74.6305 14.684H76.615L76.867 11.1875L77.2765 6.746H77.0875L75.733 11.1875ZM90.74 5.171L87.275 23H82.991L86.456 5.171H83.0855L83.873 1.076H94.898L94.1105 5.171H90.74ZM99.4766 23L101.209 13.928H98.4686L96.7361 23H92.4521L96.7046 1.076H100.989L99.2876 9.77H102.028L103.729 1.076H107.982L103.729 23H99.4766ZM114.848 18.716H111.635L110.155 23H105.587L113.998 1.076H119.227L119.164 23H114.691L114.848 18.716ZM114.124 11.1875L113.021 14.684H115.006L115.258 11.1875L115.667 6.746H115.478L114.124 11.1875ZM120.399 23L122.604 15.944C122.709 15.608 122.846 15.272 123.014 14.936C123.182 14.6 123.371 14.285 123.581 13.991C123.812 13.697 124.064 13.4345 124.337 13.2035C124.61 12.9725 124.914 12.8045 125.25 12.6995C124.641 12.3215 124.19 11.7965 123.896 11.1245C123.602 10.4525 123.455 9.686 123.455 8.825C123.455 7.418 123.654 6.221 124.053 5.234C124.473 4.247 125.009 3.449 125.66 2.84C126.332 2.231 127.077 1.79 127.896 1.517C128.736 1.223 129.587 1.076 130.448 1.076H136.149L132.023 23H127.833L129.566 14.054H129.062C128.474 14.054 127.97 14.327 127.55 14.873C127.151 15.419 126.815 16.112 126.542 16.952L124.652 23H120.399ZM131.298 5.171H130.511C129.692 5.171 128.999 5.402 128.432 5.864C127.865 6.326 127.581 7.0925 127.581 8.1635C127.581 8.8985 127.802 9.392 128.243 9.644C128.684 9.896 129.167 10.022 129.692 10.022H130.353L131.298 5.171ZM151.526 11.408L145.856 23H141.698L145.919 1.076H150.14L147.872 12.7625H147.935L153.573 1.076H157.826L153.573 23H149.321L151.589 11.408H151.526ZM164.77 5.171L161.305 23H157.021L161.273 1.076H171.322L170.534 5.171H164.77ZM178.553 1.076C179.351 1.076 180.075 1.16 180.726 1.328C181.377 1.496 181.934 1.7795 182.396 2.1785C182.858 2.5565 183.215 3.0815 183.467 3.7535C183.719 4.4045 183.845 5.213 183.845 6.179C183.845 9.035 183.162 11.219 181.797 12.731C180.432 14.222 178.584 14.9675 176.253 14.9675H175.245L173.702 23H169.418L173.67 1.076H178.553ZM177.167 5.171L176.064 10.841H176.789C177.062 10.841 177.366 10.799 177.702 10.715C178.038 10.61 178.353 10.4315 178.647 10.1795C178.941 9.9065 179.183 9.5285 179.372 9.0455C179.561 8.5625 179.655 7.9325 179.655 7.1555C179.655 6.4205 179.487 5.906 179.151 5.612C178.836 5.318 178.395 5.171 177.828 5.171H177.167ZM189.568 18.716H186.355L184.875 23H180.307L188.718 1.076H193.947L193.884 23H189.411L189.568 18.716ZM188.844 11.1875L187.741 14.684H189.726L189.978 11.1875L190.387 6.746H190.198L188.844 11.1875ZM209.415 16.889L206.328 23H201.036L207.777 11.5655L205.604 1.076H210.486L211.085 6.179H211.274L213.794 1.076H219.149L212.754 11.5655L215.211 23H210.297L209.541 16.889H209.415ZM228.447 17.2355C228.321 18.0545 228.122 18.8315 227.849 19.5665C227.576 20.2805 227.198 20.9105 226.715 21.4565C226.232 21.9815 225.633 22.4015 224.919 22.7165C224.226 23.0315 223.376 23.189 222.368 23.189C221.486 23.189 220.719 23.042 220.068 22.748C219.417 22.433 218.892 22.0025 218.493 21.4565C218.094 20.9105 217.832 20.2595 217.706 19.5035C217.601 18.7475 217.653 17.9285 217.863 17.0465L222.021 16.5425C221.853 17.1095 221.759 17.561 221.738 17.897C221.738 18.233 221.78 18.4955 221.864 18.6845C221.948 18.8525 222.053 18.968 222.179 19.031C222.326 19.073 222.462 19.094 222.588 19.094C222.819 19.094 223.061 19.01 223.313 18.842C223.565 18.674 223.743 18.3065 223.848 17.7395L224.762 13.046C224.867 12.458 224.625 12.164 224.037 12.164C223.869 12.164 223.638 12.2375 223.344 12.3845C223.05 12.5105 222.756 12.815 222.462 13.298H218.966L221.36 1.076H231.156L230.369 5.0765H224.541L223.785 9.0455L223.848 9.077C224.142 8.825 224.51 8.636 224.951 8.51C225.392 8.384 225.759 8.321 226.053 8.321C227.46 8.321 228.384 8.72 228.825 9.518C229.266 10.316 229.382 11.345 229.172 12.605L228.447 17.2355Z" fill="#FF6A13"/>
<path d="M11.0329 49.408C11.0329 49.45 11.0224 49.4815 11.0014 49.5025C11.0014 49.5025 11.0014 49.5235 11.0014 49.5655C11.6944 49.7965 12.1669 50.1955 12.4189 50.7625C12.6919 51.3085 12.8284 51.9595 12.8284 52.7155C12.8284 55.4245 12.2194 57.4825 11.0014 58.8895C9.78337 60.2965 8.12437 61 6.02437 61H0.921365L5.17387 39.076H9.61537C11.2534 39.076 12.4609 39.454 13.2379 40.21C14.0359 40.945 14.4349 42.0475 14.4349 43.5175C14.4349 45.1975 14.1409 46.51 13.5529 47.455C12.9859 48.4 12.1459 49.051 11.0329 49.408ZM7.94587 42.289L6.81187 47.959H7.91437C8.92237 47.959 9.70987 47.6335 10.2769 46.9825C10.8439 46.3105 11.1274 45.376 11.1274 44.179C11.1274 43.507 10.9489 43.024 10.5919 42.73C10.2349 42.436 9.68887 42.289 8.95387 42.289H7.94587ZM6.21337 51.0145C5.98237 52.1695 5.75137 53.314 5.52037 54.448C5.31037 55.582 5.08987 56.716 4.85887 57.85H5.80387C6.51787 57.85 7.11637 57.7345 7.59937 57.5035C8.08237 57.2515 8.47087 56.926 8.76487 56.527C9.05887 56.107 9.26887 55.6135 9.39487 55.0465C9.52087 54.4795 9.58387 53.86 9.58387 53.188C9.58387 51.739 8.83837 51.0145 7.34737 51.0145H6.21337ZM14.4565 61C14.4985 60.79 14.5405 60.5905 14.5825 60.4015C14.6245 60.2125 14.6665 60.013 14.7085 59.803C15.3805 56.338 16.042 52.8835 16.693 49.4395C17.365 45.9955 18.037 42.541 18.709 39.076H22.0795C21.8065 40.483 21.5335 41.89 21.2605 43.297C21.0085 44.704 20.7355 46.111 20.4415 47.518H21.418C23.266 47.518 24.61 47.9485 25.45 48.8095C26.29 49.6495 26.71 50.7205 26.71 52.0225C26.71 53.3035 26.5525 54.49 26.2375 55.582C25.9435 56.674 25.492 57.6295 24.883 58.4485C24.274 59.2465 23.518 59.8765 22.615 60.3385C21.733 60.7795 20.6935 61 19.4965 61H14.4565ZM26.6155 61L30.868 39.076H34.27L30.0175 61H26.6155ZM18.457 57.787H19.717C20.368 57.787 20.914 57.64 21.355 57.346C21.817 57.031 22.195 56.6425 22.489 56.1805C22.783 55.6975 22.993 55.162 23.119 54.574C23.266 53.965 23.3395 53.377 23.3395 52.81C23.3395 52.075 23.1505 51.55 22.7725 51.235C22.3945 50.899 21.817 50.731 21.04 50.731H19.8115L18.457 57.787ZM43.6455 47.5495L36.4635 61H33.219L37.44 39.076H40.8105L38.1645 52.621C38.1855 52.621 38.196 52.6315 38.196 52.6525C38.217 52.6525 38.238 52.6525 38.259 52.6525L45.441 39.076H48.7485L44.496 61H41.1255C41.5455 58.753 41.976 56.5165 42.417 54.2905C42.858 52.0645 43.299 49.8175 43.74 47.5495H43.6455ZM54.919 42.289L51.2965 61H47.8945L52.147 39.076H61.6285L60.9985 42.289H54.919ZM68.6838 39.076C70.2798 39.076 71.4978 39.433 72.3378 40.147C73.1778 40.861 73.5978 42.037 73.5978 43.675C73.5978 44.998 73.4508 46.216 73.1568 47.329C72.8838 48.421 72.4428 49.3555 71.8338 50.1325C71.2458 50.9095 70.4898 51.5185 69.5658 51.9595C68.6628 52.3795 67.5813 52.5895 66.3213 52.5895H64.7463L63.1398 61H59.7378L63.9903 39.076H68.6838ZM66.7623 42.289L65.3763 49.345H66.6048C67.7598 49.345 68.6523 48.946 69.2823 48.148C69.9123 47.329 70.2273 46.132 70.2273 44.557C70.2273 43.822 70.0383 43.2655 69.6603 42.8875C69.3033 42.4885 68.7153 42.289 67.8963 42.289H66.7623ZM79.4275 56.4325H75.3955L73.6945 61H70.1665L78.829 39.076H82.609L82.8295 61H79.396L79.4275 56.4325ZM78.1045 48.9355L76.5295 53.2195H79.522L79.6165 48.904L79.8685 44.1475H79.711L78.1045 48.9355ZM95.079 47.5495L87.897 61H84.6525L88.8735 39.076H92.244L89.598 52.621C89.619 52.621 89.6295 52.6315 89.6295 52.6525C89.6505 52.6525 89.6715 52.6525 89.6925 52.6525L96.8745 39.076H100.182L95.9295 61H92.559C92.979 58.753 93.4095 56.5165 93.8505 54.2905C94.2915 52.0645 94.7325 49.8175 95.1735 47.5495H95.079ZM93.2835 33.784C93.2835 34.435 93.42 34.9705 93.693 35.3905C93.987 35.7895 94.4175 35.989 94.9845 35.989C95.3205 35.989 95.625 35.926 95.898 35.8C96.192 35.653 96.444 35.4745 96.654 35.2645C96.885 35.0335 97.0635 34.792 97.1895 34.54C97.3365 34.267 97.4416 34.015 97.5045 33.784H100.245C100.098 34.33 99.8775 34.876 99.5835 35.422C99.3105 35.947 98.9535 36.4195 98.5126 36.8395C98.0716 37.2595 97.5465 37.606 96.9375 37.879C96.3285 38.131 95.6355 38.257 94.8585 38.257C94.0815 38.257 93.4305 38.1415 92.9055 37.9105C92.3805 37.6795 91.95 37.3855 91.614 37.0285C91.299 36.6715 91.068 36.262 90.921 35.8C90.774 35.338 90.7005 34.8655 90.7005 34.3825C90.7005 34.2775 90.7005 34.183 90.7005 34.099C90.7005 33.994 90.711 33.889 90.732 33.784H93.2835ZM116.656 56.0545C116.53 56.8105 116.33 57.5035 116.057 58.1335C115.805 58.7425 115.459 59.278 115.018 59.74C114.577 60.202 114.031 60.559 113.38 60.811C112.75 61.063 111.994 61.189 111.112 61.189C110.335 61.189 109.642 61.084 109.033 60.874C108.424 60.643 107.93 60.307 107.552 59.866C107.174 59.425 106.912 58.8685 106.765 58.1965C106.639 57.5245 106.67 56.737 106.859 55.834L110.293 55.393C110.041 56.359 110.041 57.031 110.293 57.409C110.566 57.787 110.954 57.976 111.458 57.976C111.899 57.976 112.256 57.829 112.529 57.535C112.823 57.22 113.023 56.821 113.128 56.338L114.041 51.6445C114.188 50.8675 114.104 50.3425 113.789 50.0695C113.495 49.7755 113.149 49.6285 112.75 49.6285C112.477 49.6285 112.162 49.723 111.805 49.912C111.469 50.08 111.164 50.374 110.891 50.794H108.056L110.356 39.076H119.491L118.892 42.1945H112.813L111.805 47.4865C111.826 47.4865 111.836 47.497 111.836 47.518C111.857 47.518 111.878 47.518 111.899 47.518C112.235 47.224 112.624 47.014 113.065 46.888C113.527 46.741 113.957 46.6675 114.356 46.6675C114.923 46.6675 115.427 46.762 115.868 46.951C116.309 47.119 116.666 47.4025 116.939 47.8015C117.212 48.2005 117.391 48.715 117.475 49.345C117.559 49.975 117.527 50.7415 117.38 51.6445L116.656 56.0545ZM133.677 38.887C134.454 38.887 135.136 39.0235 135.724 39.2965C136.312 39.5695 136.785 39.958 137.142 40.462C137.52 40.945 137.761 41.5225 137.866 42.1945C137.992 42.8665 137.982 43.6015 137.835 44.3995L135.378 56.6845C135.105 58.0705 134.548 59.173 133.708 59.992C132.889 60.79 131.755 61.189 130.306 61.189C129.445 61.189 128.71 61.0525 128.101 60.7795C127.513 60.5065 127.041 60.1285 126.684 59.6455C126.348 59.1625 126.127 58.585 126.022 57.913C125.938 57.241 125.97 56.506 126.117 55.708C126.159 55.435 126.232 54.9835 126.337 54.3535C126.463 53.7235 126.6 52.999 126.747 52.18C126.915 51.34 127.083 50.4685 127.251 49.5655C127.419 48.6415 127.576 47.7805 127.723 46.9825C127.891 46.1635 128.038 45.439 128.164 44.809C128.29 44.179 128.374 43.738 128.416 43.486C128.71 41.995 129.319 40.861 130.243 40.084C131.167 39.286 132.312 38.887 133.677 38.887ZM133.33 42.163C132.889 42.163 132.532 42.289 132.259 42.541C132.007 42.793 131.839 43.129 131.755 43.549L129.33 55.9915C129.225 56.5375 129.246 56.9995 129.393 57.3775C129.561 57.7345 129.918 57.913 130.464 57.913C131.388 57.913 131.944 57.388 132.133 56.338C132.427 54.805 132.721 53.293 133.015 51.802C133.309 50.311 133.572 48.9775 133.803 47.8015C134.034 46.6255 134.223 45.67 134.37 44.935C134.517 44.2 134.59 43.8325 134.59 43.8325C134.695 43.2865 134.601 42.877 134.307 42.604C134.034 42.31 133.708 42.163 133.33 42.163ZM146.443 38.887C147.22 38.887 147.902 39.0235 148.49 39.2965C149.078 39.5695 149.551 39.958 149.908 40.462C150.286 40.945 150.527 41.5225 150.632 42.1945C150.758 42.8665 150.748 43.6015 150.601 44.3995L148.144 56.6845C147.871 58.0705 147.314 59.173 146.474 59.992C145.655 60.79 144.521 61.189 143.072 61.189C142.211 61.189 141.476 61.0525 140.867 60.7795C140.279 60.5065 139.807 60.1285 139.45 59.6455C139.114 59.1625 138.893 58.585 138.788 57.913C138.704 57.241 138.736 56.506 138.883 55.708C138.925 55.435 138.998 54.9835 139.103 54.3535C139.229 53.7235 139.366 52.999 139.513 52.18C139.681 51.34 139.849 50.4685 140.017 49.5655C140.185 48.6415 140.342 47.7805 140.489 46.9825C140.657 46.1635 140.804 45.439 140.93 44.809C141.056 44.179 141.14 43.738 141.182 43.486C141.476 41.995 142.085 40.861 143.009 40.084C143.933 39.286 145.078 38.887 146.443 38.887ZM146.096 42.163C145.655 42.163 145.298 42.289 145.025 42.541C144.773 42.793 144.605 43.129 144.521 43.549L142.096 55.9915C141.991 56.5375 142.012 56.9995 142.159 57.3775C142.327 57.7345 142.684 57.913 143.23 57.913C144.154 57.913 144.71 57.388 144.899 56.338C145.193 54.805 145.487 53.293 145.781 51.802C146.075 50.311 146.338 48.9775 146.569 47.8015C146.8 46.6255 146.989 45.67 147.136 44.935C147.283 44.2 147.356 43.8325 147.356 43.8325C147.461 43.2865 147.367 42.877 147.073 42.604C146.8 42.31 146.474 42.163 146.096 42.163ZM159.209 38.887C159.986 38.887 160.668 39.0235 161.256 39.2965C161.844 39.5695 162.317 39.958 162.674 40.462C163.052 40.945 163.293 41.5225 163.398 42.1945C163.524 42.8665 163.514 43.6015 163.367 44.3995L160.91 56.6845C160.637 58.0705 160.08 59.173 159.24 59.992C158.421 60.79 157.287 61.189 155.838 61.189C154.977 61.189 154.242 61.0525 153.633 60.7795C153.045 60.5065 152.573 60.1285 152.216 59.6455C151.88 59.1625 151.659 58.585 151.554 57.913C151.47 57.241 151.502 56.506 151.649 55.708C151.691 55.435 151.764 54.9835 151.869 54.3535C151.995 53.7235 152.132 52.999 152.279 52.18C152.447 51.34 152.615 50.4685 152.783 49.5655C152.951 48.6415 153.108 47.7805 153.255 46.9825C153.423 46.1635 153.57 45.439 153.696 44.809C153.822 44.179 153.906 43.738 153.948 43.486C154.242 41.995 154.851 40.861 155.775 40.084C156.699 39.286 157.844 38.887 159.209 38.887ZM158.862 42.163C158.421 42.163 158.064 42.289 157.791 42.541C157.539 42.793 157.371 43.129 157.287 43.549L154.862 55.9915C154.757 56.5375 154.778 56.9995 154.925 57.3775C155.093 57.7345 155.45 57.913 155.996 57.913C156.92 57.913 157.476 57.388 157.665 56.338C157.959 54.805 158.253 53.293 158.547 51.802C158.841 50.311 159.104 48.9775 159.335 47.8015C159.566 46.6255 159.755 45.67 159.902 44.935C160.049 44.2 160.122 43.8325 160.122 43.8325C160.227 43.2865 160.133 42.877 159.839 42.604C159.566 42.31 159.24 42.163 158.862 42.163ZM178.435 38.887C179.212 38.887 179.894 39.0235 180.482 39.2965C181.07 39.5695 181.543 39.958 181.9 40.462C182.278 40.945 182.519 41.5225 182.624 42.1945C182.75 42.8665 182.74 43.6015 182.593 44.3995L180.136 56.6845C179.863 58.0705 179.306 59.173 178.466 59.992C177.647 60.79 176.513 61.189 175.064 61.189C174.203 61.189 173.468 61.0525 172.859 60.7795C172.271 60.5065 171.799 60.1285 171.442 59.6455C171.106 59.1625 170.885 58.585 170.78 57.913C170.696 57.241 170.728 56.506 170.875 55.708C170.917 55.435 170.99 54.9835 171.095 54.3535C171.221 53.7235 171.358 52.999 171.505 52.18C171.673 51.34 171.841 50.4685 172.009 49.5655C172.177 48.6415 172.334 47.7805 172.481 46.9825C172.649 46.1635 172.796 45.439 172.922 44.809C173.048 44.179 173.132 43.738 173.174 43.486C173.468 41.995 174.077 40.861 175.001 40.084C175.925 39.286 177.07 38.887 178.435 38.887ZM178.088 42.163C177.647 42.163 177.29 42.289 177.017 42.541C176.765 42.793 176.597 43.129 176.513 43.549L174.088 55.9915C173.983 56.5375 174.004 56.9995 174.151 57.3775C174.319 57.7345 174.676 57.913 175.222 57.913C176.146 57.913 176.702 57.388 176.891 56.338C177.185 54.805 177.479 53.293 177.773 51.802C178.067 50.311 178.33 48.9775 178.561 47.8015C178.792 46.6255 178.981 45.67 179.128 44.935C179.275 44.2 179.348 43.8325 179.348 43.8325C179.453 43.2865 179.359 42.877 179.065 42.604C178.792 42.31 178.466 42.163 178.088 42.163ZM191.201 38.887C191.978 38.887 192.661 39.0235 193.249 39.2965C193.837 39.5695 194.309 39.958 194.666 40.462C195.044 40.945 195.286 41.5225 195.391 42.1945C195.517 42.8665 195.506 43.6015 195.359 44.3995L192.902 56.6845C192.629 58.0705 192.073 59.173 191.233 59.992C190.414 60.79 189.28 61.189 187.831 61.189C186.97 61.189 186.235 61.0525 185.626 60.7795C185.038 60.5065 184.565 60.1285 184.208 59.6455C183.872 59.1625 183.652 58.585 183.547 57.913C183.463 57.241 183.494 56.506 183.641 55.708C183.683 55.435 183.757 54.9835 183.862 54.3535C183.988 53.7235 184.124 52.999 184.271 52.18C184.439 51.34 184.607 50.4685 184.775 49.5655C184.943 48.6415 185.101 47.7805 185.248 46.9825C185.416 46.1635 185.563 45.439 185.689 44.809C185.815 44.179 185.899 43.738 185.941 43.486C186.235 41.995 186.844 40.861 187.768 40.084C188.692 39.286 189.836 38.887 191.201 38.887ZM190.855 42.163C190.414 42.163 190.057 42.289 189.784 42.541C189.532 42.793 189.364 43.129 189.28 43.549L186.854 55.9915C186.749 56.5375 186.77 56.9995 186.917 57.3775C187.085 57.7345 187.442 57.913 187.988 57.913C188.912 57.913 189.469 57.388 189.658 56.338C189.952 54.805 190.246 53.293 190.54 51.802C190.834 50.311 191.096 48.9775 191.327 47.8015C191.558 46.6255 191.747 45.67 191.894 44.935C192.041 44.2 192.115 43.8325 192.115 43.8325C192.22 43.2865 192.125 42.877 191.831 42.604C191.558 42.31 191.233 42.163 190.855 42.163ZM203.967 38.887C204.744 38.887 205.427 39.0235 206.015 39.2965C206.603 39.5695 207.075 39.958 207.432 40.462C207.81 40.945 208.052 41.5225 208.157 42.1945C208.283 42.8665 208.272 43.6015 208.125 44.3995L205.668 56.6845C205.395 58.0705 204.839 59.173 203.999 59.992C203.18 60.79 202.046 61.189 200.597 61.189C199.736 61.189 199.001 61.0525 198.392 60.7795C197.804 60.5065 197.331 60.1285 196.974 59.6455C196.638 59.1625 196.418 58.585 196.313 57.913C196.229 57.241 196.26 56.506 196.407 55.708C196.449 55.435 196.523 54.9835 196.628 54.3535C196.754 53.7235 196.89 52.999 197.037 52.18C197.205 51.34 197.373 50.4685 197.541 49.5655C197.709 48.6415 197.867 47.7805 198.014 46.9825C198.182 46.1635 198.329 45.439 198.455 44.809C198.581 44.179 198.665 43.738 198.707 43.486C199.001 41.995 199.61 40.861 200.534 40.084C201.458 39.286 202.602 38.887 203.967 38.887ZM203.621 42.163C203.18 42.163 202.823 42.289 202.55 42.541C202.298 42.793 202.13 43.129 202.046 43.549L199.62 55.9915C199.515 56.5375 199.536 56.9995 199.683 57.3775C199.851 57.7345 200.208 57.913 200.754 57.913C201.678 57.913 202.235 57.388 202.424 56.338C202.718 54.805 203.012 53.293 203.306 51.802C203.6 50.311 203.862 48.9775 204.093 47.8015C204.324 46.6255 204.513 45.67 204.66 44.935C204.807 44.2 204.881 43.8325 204.881 43.8325C204.986 43.2865 204.891 42.877 204.597 42.604C204.324 42.31 203.999 42.163 203.621 42.163ZM217.082 40.966L217.618 38.509H232.108L231.572 40.966H217.082ZM218.657 61L221.87 45.88H216.043L216.578 43.423H231.068L230.533 45.88H224.705L221.492 61H218.657ZM54.0923 99L58.3448 77.076H67.3853L66.7868 80.289H61.0853C60.9173 81.171 60.7493 82.0425 60.5813 82.9035C60.4133 83.7645 60.2453 84.636 60.0773 85.518H61.4318C63.1328 85.518 64.3718 85.917 65.1488 86.715C65.9258 87.513 66.3143 88.542 66.3143 89.802C66.3143 91.041 66.1673 92.217 65.8733 93.33C65.6003 94.422 65.1698 95.3985 64.5818 96.2595C63.9938 97.0995 63.2483 97.7715 62.3453 98.2755C61.4633 98.7585 60.4133 99 59.1953 99H54.0923ZM58.0928 95.787H59.4158C60.6338 95.787 61.5158 95.3355 62.0618 94.4325C62.6288 93.5085 62.9333 92.2905 62.9753 90.7785C62.9753 89.4135 62.1983 88.731 60.6443 88.731H59.4473L58.0928 95.787ZM67.1052 99L71.3577 77.076H81.0912L80.4612 80.289H74.1297L72.9642 86.2425H78.4767L77.8467 89.487H72.3342L71.1057 95.8185H77.4372L76.8387 99H67.1052ZM88.0805 76.887C89.6135 76.887 90.758 77.2335 91.514 77.9265C92.27 78.6195 92.69 79.512 92.774 80.604C92.774 80.877 92.7635 81.15 92.7425 81.423C92.7425 81.675 92.711 81.948 92.648 82.242L89.246 82.809C89.309 82.473 89.3405 82.179 89.3405 81.927C89.3405 81.36 89.204 80.919 88.931 80.604C88.658 80.268 88.2695 80.1 87.7655 80.1C87.3665 80.1 87.0305 80.184 86.7575 80.352C86.4845 80.52 86.2535 80.7405 86.0645 81.0135C85.8965 81.2655 85.76 81.549 85.655 81.864C85.55 82.158 85.466 82.4415 85.403 82.7145L83.2295 93.9285C83.1875 94.1595 83.156 94.3905 83.135 94.6215C83.135 94.8525 83.1665 95.0625 83.2295 95.2515C83.3135 95.4405 83.45 95.598 83.639 95.724C83.828 95.829 84.101 95.8815 84.458 95.8815C85.046 95.8815 85.592 95.6925 86.096 95.3145C86.621 94.9155 86.957 94.2225 87.104 93.2355C87.65 93.3405 88.196 93.4455 88.742 93.5505C89.288 93.6555 89.834 93.7605 90.38 93.8655C90.128 95.4825 89.54 96.774 88.616 97.74C87.713 98.706 86.369 99.189 84.584 99.189C83.009 99.189 81.812 98.8425 80.993 98.1495C80.195 97.4565 79.7855 96.48 79.7645 95.22C79.7645 94.968 79.775 94.7055 79.796 94.4325C79.817 94.1385 79.859 93.8445 79.922 93.5505L82.001 82.872C82.148 82.053 82.358 81.2865 82.631 80.5725C82.904 79.8375 83.2715 79.197 83.7335 78.651C84.1955 78.105 84.773 77.6745 85.466 77.3595C86.18 77.0445 87.0515 76.887 88.0805 76.887ZM98.8892 99L102.512 80.2575H99.0467L95.4242 99H92.0222L96.2747 77.076H106.544L102.291 99H98.8892ZM120.331 77.076L116.078 99H112.771L116.393 80.289H113.149L111.511 88.731C111.175 90.495 110.818 91.986 110.44 93.204C110.062 94.422 109.621 95.451 109.117 96.291C108.634 97.131 108.067 97.8135 107.416 98.3385C106.765 98.8635 105.998 99.315 105.116 99.693L103.951 97.173C104.539 96.858 105.053 96.501 105.494 96.102C105.956 95.682 106.366 95.178 106.723 94.59C107.08 94.002 107.384 93.309 107.636 92.511C107.909 91.713 108.151 90.768 108.361 89.676L110.818 77.076H120.331ZM127.37 94.4325H123.338L121.637 99H118.109L126.771 77.076H130.551L130.772 99H127.338L127.37 94.4325ZM126.047 86.9355L124.472 91.2195H127.464L127.559 86.904L127.811 82.1475H127.653L126.047 86.9355ZM140.129 80.289L136.507 99H133.136L136.759 80.289H133.199L133.829 77.076H144.319L143.689 80.289H140.129ZM149.133 99L150.96 89.424H147.054L145.227 99H141.825L146.078 77.076H149.48L147.684 86.2425H151.59L153.386 77.076H156.756L152.504 99H149.133ZM163.918 80.1945C163.309 80.1945 162.837 80.373 162.501 80.73C162.186 81.087 161.965 81.5595 161.839 82.1475L159.666 93.1725C159.624 93.3405 159.592 93.519 159.571 93.708C159.55 93.876 159.54 94.044 159.54 94.212C159.54 94.695 159.676 95.094 159.949 95.409C160.222 95.724 160.653 95.8815 161.241 95.8815C161.829 95.8815 162.291 95.703 162.627 95.346C162.984 94.989 163.225 94.4955 163.351 93.8655L165.462 82.998C165.525 82.662 165.556 82.326 165.556 81.99C165.556 81.465 165.43 81.045 165.178 80.73C164.926 80.415 164.506 80.2365 163.918 80.1945ZM164.107 76.887C165.703 76.887 166.921 77.307 167.761 78.147C168.601 78.966 169.021 80.0685 169.021 81.4545C169.021 81.9585 168.958 82.5045 168.832 83.0925L166.785 93.9285C166.491 95.5665 165.903 96.858 165.021 97.803C164.139 98.727 162.858 99.189 161.178 99.189C159.435 99.189 158.164 98.7795 157.366 97.9605C156.568 97.1205 156.169 96.039 156.169 94.716C156.169 94.443 156.18 94.17 156.201 93.897C156.243 93.603 156.285 93.309 156.327 93.015L158.437 82.0845C158.773 80.3625 159.393 79.071 160.296 78.21C161.199 77.328 162.469 76.887 164.107 76.887ZM173.778 93.015H170.975L173.778 77.076H177.149L173.778 93.015ZM169.589 99L170.25 95.5665H173.526L172.865 99H169.589Z" fill="white"/>
</svg>
