<svg width="140" height="34" viewBox="0 0 140 34" fill="none" xmlns="http://www.w3.org/2000/svg">
<g clip-path="url(#clip0_801_28)">
<path d="M122.849 33.6H17.1502C7.71759 33.6 0 26.0423 0 16.8041V16.795C0 7.55775 7.71759 0 17.1511 0H122.85C132.282 0 140.001 7.55775 140.001 16.7959V16.805C140 26.0423 132.282 33.6 122.849 33.6Z" fill="white"/>
<path d="M105.69 16.8C105.69 11.5493 107.999 6.90882 111.747 3.71076C111.961 3.52766 111.812 3.26929 111.656 3.26929C111.54 3.26929 17.1576 3.26929 17.1576 3.26929C9.5262 3.26929 3.3407 9.32669 3.3407 16.8C3.3407 24.2734 9.5262 30.3307 17.1576 30.3307C17.1576 30.3307 111.413 30.3307 111.597 30.3307C111.751 30.3307 111.978 30.0958 111.686 29.8516C108.008 26.6556 105.69 21.9929 105.69 16.8Z" fill="#2C2C2C"/>
<path d="M70.1992 10.5369C70.1992 11.0383 69.7816 11.4452 69.2664 11.4452H67.8299C67.3146 11.4452 66.897 11.0383 66.897 10.5369V9.45252C66.897 8.95104 67.3146 8.54315 67.8299 8.54315H69.2664C69.7816 8.54315 70.1992 8.95003 70.1992 9.45252V10.5369Z" fill="white"/>
<path d="M63.054 9.48732C63.054 8.98586 62.6896 8.57898 62.1754 8.57898H60.6848C60.1696 8.57898 59.752 8.98586 59.752 9.48732V24.0393C59.752 24.5408 60.1696 24.9477 60.6848 24.9477H62.1214C62.6365 24.9477 63.054 24.5408 63.054 24.0393V9.48732Z" fill="white"/>
<path d="M99.3898 18.1987C99.3317 16.4256 98.8237 15.0494 97.864 14.0719C96.8429 13.0313 95.4698 12.5105 93.7445 12.5105C92.6674 12.5105 91.7377 12.6956 90.9545 13.0659C90.1713 13.4361 89.5264 13.9213 89.0195 14.5225C88.5126 15.1237 88.1417 15.8134 87.9039 16.5915C87.666 17.3707 87.5475 18.1681 87.5475 18.9849C87.5475 20.0479 87.6981 20.9694 87.9984 21.7476C88.2986 22.5257 88.7265 23.1696 89.2812 23.6782C89.8348 24.1869 90.512 24.5643 91.3107 24.8114C92.1106 25.0576 93.0008 25.1807 93.9823 25.1807C94.6627 25.1807 95.3555 25.0993 96.0598 24.9376C96.2903 24.8846 96.5064 24.8206 96.7152 24.7525C96.8076 24.729 96.9395 24.6822 97.1255 24.6069C98.1143 24.2051 98.7957 23.66 98.7957 23.66C99.1728 23.4322 99.2891 22.95 99.0553 22.5818L98.4238 21.5971C98.1901 21.2298 97.6937 21.1637 97.3166 21.3907C97.3166 21.3907 96.1242 22.1393 95.45 22.3406C95.0813 22.4506 94.5828 22.5676 94.0759 22.5676C92.1293 22.5676 91.0761 21.6194 90.9181 19.7235L98.4892 19.7275C98.989 19.7275 99.3732 19.3389 99.3941 18.8456V18.3024C99.395 18.2709 99.393 18.2362 99.3898 18.1987ZM91.0376 17.3441C91.1166 16.566 91.4052 15.974 91.9039 15.5692C92.4024 15.1643 92.9924 14.9619 93.6728 14.9619C94.1007 14.9619 94.4642 15.0321 94.7645 15.1725C95.0658 15.3118 95.3151 15.4991 95.5124 15.733C95.7098 15.9669 95.8572 16.2233 95.9517 16.504C96.0473 16.7838 96.094 17.0634 96.094 17.3441H91.0376Z" fill="white"/>
<path d="M85.0005 15.7361C84.9205 15.0962 84.6764 14.5144 84.264 13.9905C83.8682 13.5124 83.3977 13.1462 82.8514 12.8919C82.306 12.6376 81.6204 12.5105 80.7978 12.5105C79.943 12.5105 79.2024 12.6926 78.5771 13.0537C77.9518 13.4158 77.473 13.8359 77.1406 14.314V14.0363V13.5704C77.1406 13.0832 76.7344 12.6885 76.2349 12.6885H74.8408C74.3412 12.6885 73.9351 13.0832 73.9351 13.5704V24.0811C73.9351 24.5785 74.3496 24.9823 74.8606 24.9823H76.2857C76.7967 24.9823 77.2112 24.5785 77.2112 24.0811C77.2112 24.0811 77.2153 18.4916 77.2237 18.1366C77.231 17.7806 77.2745 17.4642 77.3546 17.1865C77.4023 17.0014 77.4813 16.8 77.5924 16.5834C77.7026 16.3667 77.8615 16.1622 78.067 15.969C78.2717 15.7767 78.5261 15.6139 78.8264 15.4827C79.1277 15.3515 79.4912 15.2854 79.9191 15.2854C80.3305 15.2854 80.6826 15.3474 80.9755 15.4705C81.2683 15.5947 81.4865 15.8103 81.6288 16.1194C81.7711 16.4298 81.8428 16.9231 81.8428 17.6026V24.08C81.8428 24.5775 82.2573 24.9813 82.7683 24.9813H84.1934C84.7044 24.9813 85.1189 24.5775 85.1189 24.08V23.6782V17.5506C85.1189 16.98 85.0794 16.3748 85.0005 15.7361Z" fill="white"/>
<path d="M13.4339 10.7302C13.3227 10.3904 13.2677 10.1056 13.2677 9.87369C13.2677 9.47291 13.3819 9.20133 13.7133 8.97856C13.9792 8.80054 14.5183 8.83208 15.0719 8.81885C16.0276 8.7975 16.4129 8.77003 16.7338 9.59599C16.7338 9.59599 19.2392 19.4842 19.3098 19.8382C19.3815 20.1931 19.4407 20.4861 19.4885 20.717C19.5362 20.4555 19.5913 20.1707 19.6546 19.8616C19.7181 19.5534 22.131 12.9599 22.131 12.9599C22.2577 12.4675 22.5797 12.2244 22.9443 12.0698C23.046 12.0271 23.1645 11.9783 23.3088 11.9783C23.6869 11.9783 24.3516 11.9762 24.6125 11.9762C24.8409 11.9762 25.0611 11.9661 25.2253 12.0505C25.6024 12.2193 25.8973 12.5133 26.024 13.0056C26.024 13.0056 28.5949 19.6032 28.6665 19.9195C28.7371 20.2359 28.789 20.4942 28.8202 20.6945C28.8514 20.5094 28.8992 20.2704 28.9625 19.9775C29.026 19.6529 31.6216 9.59599 31.6216 9.59599C31.98 8.77614 32.2989 8.86667 33.2835 8.86667C33.8372 8.86667 34.1457 8.81682 34.4604 8.9989C34.8332 9.21454 34.9216 9.52682 34.9216 9.89708C34.9216 10.0212 34.9102 10.1595 34.8863 10.3131C34.8624 10.4677 34.8188 10.6295 34.7555 10.7983L30.8374 23.8612C30.7075 24.269 30.4677 24.504 30.1248 24.6433C29.9981 24.6952 29.862 24.7217 29.7384 24.7217C29.3665 24.7217 27.9913 24.7227 27.9913 24.7227C27.7068 24.7227 27.5759 24.6983 27.3941 24.6241C27.0098 24.4257 26.8155 24.1541 26.7055 23.7686C26.7055 23.7686 24.1325 16.2099 24.117 16.0715C24.1013 16.1946 21.4579 23.8387 21.4579 23.8387C21.3311 24.2711 21.0963 24.4785 20.7339 24.6341C20.6187 24.683 20.4816 24.6994 20.3985 24.6994C20.0255 24.6994 18.5246 24.7003 18.5246 24.7003C18.349 24.7003 18.1507 24.6322 18.0509 24.5833C17.7061 24.4185 17.5005 24.1317 17.3737 23.7462L13.4339 10.7302Z" fill="white"/>
<path d="M41.0008 10.5369C41.0008 11.0383 40.5832 11.4452 40.068 11.4452H38.6315C38.1162 11.4452 37.6986 11.0383 37.6986 10.5369V9.45252C37.6986 8.95104 38.1162 8.54315 38.6315 8.54315H40.068C40.5832 8.54315 41.0008 8.95003 41.0008 9.45252V10.5369Z" fill="white"/>
<path d="M55.8615 15.7361C55.7825 15.0962 55.5374 14.5144 55.1261 13.9905C54.7304 13.5124 54.2599 13.1462 53.7134 12.8919C53.1671 12.6376 52.4827 12.5105 51.66 12.5105C50.8051 12.5105 50.0655 12.6926 49.4402 13.0537C48.815 13.4158 48.3361 13.8359 48.0037 14.314V14.0363V14.0343V13.5704C48.0037 13.0832 47.5986 12.6885 47.0991 12.6885H45.7019C45.2024 12.6885 44.7962 13.0832 44.7962 13.5704V24.0811C44.7962 24.5785 45.2106 24.9823 45.7217 24.9823H47.1468C47.6578 24.9823 48.0724 24.5785 48.0724 24.0811V19.0409C48.0724 18.7937 48.0765 18.4927 48.0838 18.1366C48.092 17.7806 48.1346 17.4642 48.2146 17.1865C48.2624 17.0014 48.3412 16.8 48.4514 16.5834C48.5614 16.3667 48.7205 16.1622 48.9261 15.969C49.1318 15.7767 49.3852 15.6139 49.6865 15.4827C49.9876 15.3515 50.3512 15.2854 50.7782 15.2854C51.1895 15.2854 51.5416 15.3474 51.8345 15.4705C52.1273 15.5947 52.3445 15.8103 52.4868 16.1194C52.629 16.4298 52.7007 16.9231 52.7007 17.6026V24.08C52.7007 24.5775 53.1152 24.9813 53.6262 24.9813H55.0514C55.5624 24.9813 55.9769 24.5775 55.9769 24.08V17.5506C55.9799 16.98 55.9405 16.3748 55.8615 15.7361Z" fill="white"/>
<path d="M40.0733 12.7432H38.6368C38.1215 12.7432 37.704 13.15 37.704 13.6525L37.6749 24.036C37.6749 24.5426 38.0966 24.9526 38.6159 24.9526H40.066C40.5854 24.9526 41.0071 24.5416 41.0071 24.036V13.6515C41.0071 13.15 40.5884 12.7432 40.0733 12.7432Z" fill="white"/>
<path d="M69.2835 12.7432H67.847C67.3318 12.7432 66.9142 13.15 66.9142 13.6525L66.8851 24.036C66.8851 24.5426 67.307 24.9526 67.8262 24.9526H69.2762C69.7956 24.9526 70.2173 24.5416 70.2173 24.036V13.6515C70.2173 13.15 69.7988 12.7432 69.2835 12.7432Z" fill="white"/>
<path d="M136.664 16.8C136.664 24.2734 130.477 30.3307 122.847 30.3307C115.217 30.3307 109.03 24.2734 109.03 16.8C109.03 9.3277 115.216 3.26929 122.847 3.26929C130.477 3.2693 136.664 9.3277 136.664 16.8Z" fill="#FF6A13"/>
<path d="M114.25 21.6021C113.906 21.6021 113.611 21.4805 113.365 21.2375C113.122 20.991 113 20.6958 113 20.3521C113 20.0118 113.122 19.7201 113.365 19.4771C113.611 19.234 113.906 19.1125 114.25 19.1125C114.583 19.1125 114.875 19.234 115.125 19.4771C115.375 19.7201 115.5 20.0118 115.5 20.3521C115.5 20.5812 115.441 20.7913 115.323 20.9823C115.208 21.1698 115.057 21.3208 114.87 21.4354C114.682 21.5465 114.476 21.6021 114.25 21.6021Z" fill="white"/>
<path d="M119.332 19.1646L119.337 16.5031H119.66L122.223 13.4667H124.77L121.327 17.4875H120.801L119.332 19.1646ZM117.322 21.4667V10.8H119.54V21.4667H117.322ZM122.322 21.4667L119.967 17.9823L121.447 16.4146L124.921 21.4667H122.322Z" fill="white"/>
<path d="M125.816 21.4667V20.1437L129.733 15.2948V15.2375H125.952V13.4667H132.405V14.9094L128.728 19.6385V19.6958H132.54V21.4667H125.816Z" fill="white"/>
</g>
<defs>
<clipPath id="clip0_801_28">
<rect width="140" height="33.6" fill="white"/>
</clipPath>
</defs>
</svg>
